PathFileType	4	(X/Y/Z)	c:/Users/goper/Files/vsCode/490R/osim_files/A01/A01_Fast_04.trc
DataRate	CameraRate	NumFrames	NumMarkers	Units                	OrigDataRate	OrigDataStartFrame	OrigNumFrames
120.00	120.00	10	36	mm	120.0	425	1131
                Frame#	Time	Mobility_markerset:LPSIS			Mobility_markerset:LASIS			Mobility_markerset:LTH1			Mobility_markerset:LTH2			Mobility_markerset:LTH3			Mobility_markerset:LTH4			Mobility_markerset:LLFE			Mobility_markerset:LMFE			Mobility_markerset:LSH1			Mobility_markerset:LSH2			Mobility_markerset:LSH3			Mobility_markerset:LSH4			Mobility_markerset:LLMAL			Mobility_markerset:LMMAL			Mobility_markerset:LCAL			Mobility_markerset:LMTP5			Mobility_markerset:LTOE			Mobility_markerset:LMTP1			Mobility_markerset:RPSIS			Mobility_markerset:RASIS			Mobility_markerset:RTH1			Mobility_markerset:RTH2			Mobility_markerset:RTH3			Mobility_markerset:RTH4			Mobility_markerset:RLFE			Mobility_markerset:RMFE			Mobility_markerset:RSH1			Mobility_markerset:RSH2			Mobility_markerset:RSH3			Mobility_markerset:RSH4			Mobility_markerset:RLMAL			Mobility_markerset:RMMAL			Mobility_markerset:RCAL			Mobility_markerset:RMTP1			Mobility_markerset:RTOE			Mobility_markerset:RMTP5		
		X1	Y1	Z1	X2	Y2	Z2	X3	Y3	Z3	X4	Y4	Z4	X5	Y5	Z5	X6	Y6	Z6	X7	Y7	Z7	X8	Y8	Z8	X9	Y9	Z9	X10	Y10	Z10	X11	Y11	Z11	X12	Y12	Z12	X13	Y13	Z13	X14	Y14	Z14	X15	Y15	Z15	X16	Y16	Z16	X17	Y17	Z17	X18	Y18	Z18	X19	Y19	Z19	X20	Y20	Z20	X21	Y21	Z21	X22	Y22	Z22	X23	Y23	Z23	X24	Y24	Z24	X25	Y25	Z25	X26	Y26	Z26	X27	Y27	Z27	X28	Y28	Z28	X29	Y29	Z29	X30	Y30	Z30	X31	Y31	Z31	X32	Y32	Z32	X33	Y33	Z33	X34	Y34	Z34	X35	Y35	Z35	X36	Y36	Z36

425	3.53333	869.66187	1047.18225	406.37317	639.48071	1005.95691	522.68481	799.84998	690.01947	565.03558	797.78552	643.22717	555.66400	739.47052	686.45941	565.96259	746.24158	641.86108	552.91650	780.05109	524.48987	518.18121	770.16284	530.21783	379.38141	870.07068	382.01474	506.62421	885.89777	337.26328	508.36609	811.86932	357.37970	501.86261	836.94055	317.68716	502.27673	953.27759	99.63779	484.98102	969.79950	101.63712	399.61411	1040.33228	83.53135	449.59598	821.97382	32.24453	490.69077	800.70563	52.99889	420.90140	819.68652	45.48177	388.09467	859.51465	1031.83374	307.40311	624.17010	979.79431	262.27142	640.44946	650.21924	192.49400	615.52734	614.50903	200.73566	584.10535	678.44562	195.48793	569.59912	639.96149	200.18269	513.23608	515.45703	243.61406	521.14612	526.28955	371.44296	540.64075	304.96686	241.38426	524.21143	263.22720	241.94452	483.81812	322.71512	234.33658	472.51227	277.97552	237.50945	446.08710	99.75587	273.77783	422.05804	129.14047	355.03409	479.94879	57.32284	331.01105	277.90817	115.07556	339.83109	259.01382	141.78421	290.99957	305.47775	86.66961	233.60205
426	3.54167	857.46069	1045.05994	403.96176	628.78906	1003.08746	523.66345	792.29639	688.58069	564.88519	791.04315	641.89056	555.65289	732.00153	684.20148	566.10962	738.97192	639.72772	552.93256	774.01990	522.54474	518.24054	763.84204	528.16132	379.50217	865.69916	381.11380	506.58685	882.32422	336.73996	508.33179	809.19885	355.29901	501.57086	833.59460	316.48303	502.26996	952.88330	100.05981	485.16467	969.36713	102.07137	399.34644	1039.94202	84.44769	449.46887	821.97980	32.16700	490.78018	800.91583	53.19754	420.87030	819.80475	45.48179	388.22415	846.18658	1029.61353	305.00729	611.07806	975.26733	263.31818	630.34448	646.87439	191.68803	606.00616	611.16919	199.50833	574.18097	674.94666	194.19960	559.44763	634.39575	199.59096	500.29425	514.58112	243.63887	510.76855	523.88831	373.58710	519.30298	303.48224	241.24873	501.11737	262.47180	241.84386	462.92685	323.12122	234.44124	450.12201	279.28333	237.37181	416.16586	102.08754	273.29578	393.71262	132.24689	354.87268	448.08167	57.69795	330.45462	249.03131	124.69956	339.91553	231.22340	152.47656	291.14896	274.53922	95.62368	233.27666
427	3.55000	845.01923	1042.57996	401.68219	616.92523	1000.51038	524.78369	784.43140	686.86334	564.57166	783.49780	639.96448	555.41345	724.23145	681.84601	566.10205	731.76984	637.45270	552.96942	767.74933	520.47406	518.23425	757.40894	525.95032	379.61380	861.42352	380.41406	506.56610	878.56854	336.19641	508.30258	805.27271	353.80914	501.57361	830.13062	315.22638	502.27151	952.43964	100.45416	485.27249	968.84119	102.57269	399.06891	1039.75403	85.53981	449.31030	821.94513	32.06236	490.84113	800.96680	53.17920	420.86591	0.00000	0.00000	0.00000	832.60162	1027.48486	302.76468	597.37769	970.70349	264.25461	619.75671	644.05090	190.69931	595.90826	607.78552	198.11578	563.57104	671.52515	193.39821	551.22034	631.98376	198.77373	487.03857	513.63000	244.21999	499.48953	522.44531	375.04608	498.53122	301.99576	241.21785	478.77237	261.99338	241.55231	440.80280	322.71921	236.95853	428.49753	280.45135	237.34256	387.57416	104.57477	272.82797	366.67441	135.33830	354.72815	417.64243	58.38107	329.80804	221.78783	133.87372	340.26053	205.39827	162.68883	291.89929	246.16551	105.09824	232.91357
428	3.55833	832.47772	1039.89197	399.54929	606.18256	997.54987	525.84424	776.04773	684.95197	564.33026	776.06525	638.09943	555.20984	716.72565	679.41943	566.16614	724.42432	634.92615	553.02142	761.30548	518.33826	518.20062	750.88892	523.69745	379.61859	856.94244	379.55853	506.50671	874.78113	335.65530	508.21341	801.21344	352.21954	501.57703	826.67566	314.00989	502.34274	951.90106	100.88061	485.38614	968.32336	103.08965	398.81418	1038.99976	86.48299	449.25955	821.98712	32.04536	490.88016	801.00317	53.12841	420.88062	0.00000	0.00000	0.00000	818.80408	1025.40967	300.67111	583.80963	966.13129	265.35901	608.11334	642.14972	189.85893	584.94934	605.21753	196.29373	551.32184	668.09479	193.23341	538.80829	628.65820	196.77744	473.85425	512.45795	245.00180	487.55460	522.22345	375.54321	478.78094	300.61401	241.21031	457.64081	260.81152	241.85197	423.09833	324.54675	235.28688	407.97568	281.45047	237.33734	360.62186	107.01361	272.57123	341.28470	138.17102	354.77203	389.08990	59.27139	329.26566	196.50766	142.40755	340.71402	180.90660	172.24429	292.63138	219.25681	113.54996	233.02802
429	3.56667	819.85168	1037.05505	397.60440	595.41022	994.29858	526.78210	768.54858	683.50446	564.14728	768.87158	636.44946	554.99219	708.39551	676.61267	565.95105	716.87988	632.44000	552.89899	754.93750	516.27722	518.12079	744.03046	521.28876	379.60590	852.39709	378.78217	506.37582	870.85553	335.16083	508.07910	797.00928	350.62161	501.42685	823.17200	312.88699	502.27634	951.26318	101.42057	485.46323	967.82422	103.72958	398.58072	1038.43750	87.76189	449.06635	821.96899	31.99026	490.87842	801.03516	53.08011	420.82907	0.00000	0.00000	0.00000	804.85107	1023.38641	298.78635	570.20905	961.78369	266.74533	595.05682	640.78308	188.74577	572.16119	603.63806	194.89673	539.56250	666.61328	191.86093	524.46167	626.61377	195.36015	460.26514	510.91357	245.40195	475.08380	522.51184	375.27029	460.05759	298.94650	241.30098	437.70834	259.97479	241.90733	405.09644	324.60300	235.46989	388.70422	281.90152	237.50317	335.91431	109.08749	272.70587	317.69766	140.75299	355.07669	362.77823	60.05203	329.41177	173.28032	150.18903	341.19287	158.77708	180.79845	293.27261	193.64557	120.16289	233.87483
430	3.57500	806.67365	1034.57263	395.98618	583.53149	991.32660	527.67389	759.48334	681.15826	563.56702	760.60486	634.29333	554.55939	699.92944	673.95355	565.84308	708.94232	629.75452	552.66766	747.94708	514.07135	517.94458	736.94885	518.81244	379.55118	847.29114	377.86899	506.62103	866.66553	334.71301	507.91443	792.64758	349.06387	501.36627	819.28821	311.81958	502.13678	950.68671	102.00114	485.52600	966.88934	104.29780	398.27490	1037.93347	89.15340	448.95743	821.77417	31.82182	490.88431	801.01111	53.02539	420.79755	0.00000	0.00000	0.00000	790.88794	1021.34814	297.10629	556.63177	957.66840	268.04910	579.74268	639.04602	187.73074	556.61554	602.30798	194.70038	0.00000	0.00000	0.00000	509.67062	625.77655	195.90685	446.67838	509.47314	245.31277	462.96310	522.30200	375.15817	442.55795	297.29135	241.53496	419.24829	258.88239	242.33434	386.80151	322.94388	237.33841	370.74466	281.89539	237.79611	313.99313	110.13752	273.50412	296.49567	142.72400	355.71472	339.35922	60.43054	330.45721	152.35754	157.14548	342.01477	138.91057	187.33374	293.48529	171.79871	125.21664	234.32399
431	3.58333	0.00000	0.00000	0.00000	571.57599	988.13538	528.60223	750.60681	679.08966	563.25439	752.66321	632.50018	554.36249	691.04980	671.09460	565.64850	700.63983	627.07794	552.59790	740.73743	511.74414	517.86847	729.61218	516.26288	379.48660	842.61658	377.44568	506.06192	862.15619	334.22363	507.79437	787.89478	347.38965	501.23425	815.15991	310.49146	502.05865	949.66974	102.83891	485.61755	966.17102	105.18578	397.97568	1037.11414	90.98720	448.74124	821.66577	31.71995	490.94977	800.89166	52.92905	420.78397	0.00000	0.00000	0.00000	776.95624	1019.44287	295.62689	542.96228	953.97015	269.52695	563.62659	637.59943	186.93793	539.90527	601.25104	195.19350	0.00000	0.00000	0.00000	493.44614	625.37604	197.12912	432.62427	508.19077	244.73965	450.32520	521.30542	375.42416	425.84732	295.96451	242.02469	402.19165	257.84970	242.93198	370.48773	322.14258	237.67502	354.03912	281.42554	238.23625	295.23993	110.01910	274.61169	278.18170	143.63217	356.63654	319.55597	60.18966	331.92953	134.61835	160.81932	342.52090	122.01247	190.84772	293.64337	153.67836	127.79884	234.67409
432	3.59167	0.00000	0.00000	0.00000	559.55658	984.87988	529.44586	741.37219	676.91980	562.90704	743.44690	630.10974	553.86548	681.83527	668.16180	565.61652	691.77216	624.28619	552.38934	733.00214	509.16125	517.78418	721.78125	513.55701	379.52512	836.80988	376.37231	506.43848	857.32397	333.71881	507.73181	782.86719	345.64792	501.19534	810.71509	309.17270	501.87958	948.33240	103.50890	486.10043	965.08258	106.17389	397.81256	1036.20544	92.84293	448.72644	821.45245	31.63450	491.09073	800.71588	52.82302	420.79910	0.00000	0.00000	0.00000	763.14618	1017.59479	294.42471	529.37305	950.74103	270.95801	546.42889	636.58716	186.92896	522.48639	600.83063	195.68559	489.80069	665.36200	192.04472	476.66083	625.76526	197.91725	417.84351	507.86148	244.70262	437.68787	519.50806	376.17441	409.97455	295.18622	242.64120	386.33539	256.91379	243.72087	354.61023	321.21829	238.04094	338.13885	280.45706	238.88075	279.65585	108.97425	275.71152	262.79715	143.05029	357.65866	303.68768	59.14098	333.26627	119.35017	160.82996	343.40094	106.96950	190.68910	294.48779	139.00317	127.73548	235.08531
433	3.60000	0.00000	0.00000	0.00000	547.17798	981.51959	530.21490	731.59869	674.61633	562.55316	734.19464	627.76562	553.50043	672.23047	665.24243	565.53510	682.65533	621.40741	552.20367	724.82562	506.48569	517.68738	713.58594	510.82574	379.46140	830.79779	375.48035	506.33112	852.20703	333.30167	507.61945	777.76685	344.00433	501.29666	805.84967	307.75079	501.76648	947.68396	105.44434	486.09189	964.02344	107.53063	397.58057	1035.05005	95.14091	448.59216	821.26300	31.40349	491.10553	800.46796	52.64661	420.84091	0.00000	0.00000	0.00000	749.32654	1015.67908	293.42911	515.61145	948.16431	272.38202	529.27289	636.32611	186.92897	504.56210	600.66034	195.93501	473.89960	665.89374	192.37106	459.34540	626.26703	198.55742	401.30048	507.86557	245.12236	423.42850	518.06281	377.02142	394.99451	294.74893	243.28751	371.81009	256.31247	244.32198	339.06296	320.08127	238.72502	323.29895	279.11887	239.59081	267.15933	107.39671	276.77682	249.86630	140.84161	358.75919	291.35587	57.25564	333.93762	106.11596	157.28966	344.77682	93.76984	187.37997	296.14615	125.53970	124.35258	237.12575
434	3.60833	0.00000	0.00000	0.00000	534.62213	978.18988	530.77832	722.02789	672.64526	562.39557	724.55408	625.46692	553.15076	662.18964	662.27002	565.40387	673.04230	618.58563	552.15710	716.16394	503.76736	517.57672	704.79553	507.94714	379.46371	824.50299	374.73865	506.21680	846.67731	332.92581	507.55350	771.88477	342.27637	501.13464	800.81073	306.44244	501.72910	946.59784	106.83824	486.32562	962.58801	109.05396	397.34143	1033.83228	97.92856	448.43292	821.05164	31.12465	491.16147	800.21661	52.41980	420.86789	0.00000	0.00000	0.00000	735.63947	1013.80438	292.71603	501.52069	946.23376	273.50833	511.83606	636.49084	186.96770	487.33276	600.58173	196.24448	456.79648	666.44775	192.58748	441.80045	627.50977	198.70200	383.96347	508.26154	246.39456	406.86060	517.51752	377.45093	380.99844	294.29227	243.82556	358.61340	255.41846	244.90164	324.52997	318.57153	239.57117	309.59827	277.31732	240.32826	257.44827	105.47268	277.89859	239.22328	137.30150	359.86981	281.74640	54.54093	334.02524	95.17460	151.54973	346.58237	82.10998	182.06485	298.13287	115.22072	120.70266	238.34013
